HIERARCHY
ROOT Hips
{
  OFFSET 50.7887 97.0127 5.21521
  CHANNELS 6 Xposition Yposition Zposition Zrotation Xrotation Yrotation
  JOINT spine
  {
    OFFSET 0 7.96568 0.458067
    CHANNELS 3 Zrotation Xrotation Yrotation
    JOINT spine1
    {
      OFFSET 0 10.2431 0
      CHANNELS 3 Zrotation Xrotation Yrotation
      JOINT spine2
      {
        OFFSET 0 9.81475 0
        CHANNELS 3 Zrotation Xrotation Yrotation
        JOINT Neck
        {
          OFFSET 0 25.1986 1.20138
          CHANNELS 3 Zrotation Xrotation Yrotation
          JOINT Head
          {
            OFFSET 0 7.61315 0
            CHANNELS 3 Zrotation Xrotation Yrotation
            End Site
            {
              OFFSET 0 18.4281 -6.07733
            }
          }
        }
        JOINT RightShoulder
        {
          OFFSET -4.1327 10.5992 -0.575451
          CHANNELS 3 Zrotation Xrotation Yrotation
          JOINT RightArm
          {
            OFFSET 0 13.9018 0
            CHANNELS 3 Zrotation Xrotation Yrotation
            JOINT RightArmRoll
            {
              OFFSET 0 7.01789 0
              CHANNELS 3 Zrotation Xrotation Yrotation
              JOINT RightForeArm
              {
                OFFSET 0 20.4406 0
                CHANNELS 3 Zrotation Xrotation Yrotation
                JOINT RightForeArmRoll
                {
                  OFFSET 0 7.87516 0
                  CHANNELS 3 Zrotation Xrotation Yrotation
                  JOINT RightHand
                  {
                    OFFSET 0 15.8037 0
                    CHANNELS 3 Zrotation Xrotation Yrotation
                    End Site
                    {
                      OFFSET 0 0 0
                    }
                  }
                }
              }
            }
          }
        }
        JOINT LeftShoulder
        {
          OFFSET 4.1327 10.5992 -0.575451
          CHANNELS 3 Zrotation Xrotation Yrotation
          JOINT LeftArm
          {
            OFFSET 0 13.9018 0
            CHANNELS 3 Zrotation Xrotation Yrotation
            JOINT LeftArmRoll
            {
              OFFSET 0 7.01789 0
              CHANNELS 3 Zrotation Xrotation Yrotation
              JOINT LeftForeArm
              {
                OFFSET 0 20.4406 0
                CHANNELS 3 Zrotation Xrotation Yrotation
                JOINT LeftForeArmRoll
                {
                  OFFSET 0 7.87516 0
                  CHANNELS 3 Zrotation Xrotation Yrotation
                  JOINT LeftHand
                  {
                    OFFSET 0 15.8037 0
                    CHANNELS 3 Zrotation Xrotation Yrotation
                    End Site
                    {
                      OFFSET 0 0 0
                    }
                  }
                }
              }
            }
          }
        }
      }
    }
  }
  JOINT RightUpLeg
  {
    OFFSET -7.06048 -1.2947 -1.0861
    CHANNELS 3 Zrotation Xrotation Yrotation
    JOINT RightUpLegRoll
    {
      OFFSET 0 18.5308 0
      CHANNELS 3 Zrotation Xrotation Yrotation
      JOINT RightLeg
      {
        OFFSET 0 -22.9476 0
        CHANNELS 3 Zrotation Xrotation Yrotation
        JOINT RightLegRoll
        {
          OFFSET 0 23.0226 0
          CHANNELS 3 Zrotation Xrotation Yrotation
          JOINT RightFoot
          {
            OFFSET 0 19.1625 0
            CHANNELS 3 Zrotation Xrotation Yrotation
            JOINT RightToeBase
            {
              OFFSET 0 16.0188 0
              CHANNELS 3 Zrotation Xrotation Yrotation
              End Site
              {
                OFFSET 0.00678979 7.75782 -0.894206
              }
            }
          }
        }
      }
    }
  }
  JOINT LeftUpLeg
  {
    OFFSET 7.06048 -1.2947 -1.0861
    CHANNELS 3 Zrotation Xrotation Yrotation
    JOINT LeftUpLegRoll
    {
      OFFSET 0 18.5309 0
      CHANNELS 3 Zrotation Xrotation Yrotation
      JOINT LeftLeg
      {
        OFFSET 0 22.9475 0
        CHANNELS 3 Zrotation Xrotation Yrotation
        JOINT LeftLegRoll
        {
          OFFSET 0 23.2355 0
          CHANNELS 3 Zrotation Xrotation Yrotation
          JOINT LeftFoot
          {
            OFFSET 0 18.9496 0
            CHANNELS 3 Zrotation Xrotation Yrotation
            JOINT LeftToeBase
            {
              OFFSET 0 16.0188 0
              CHANNELS 3 Zrotation Xrotation Yrotation
              End Site
              {
                OFFSET -0.0304289 7.75782 -0.894206
              }
            }
          }
        }
      }
    }
  }
}
MOTION
Frames: 12
Frame Time: 0.00208333
46.0737 96.652 4.12621 2.28028 -3.32689 10.1139 0.263045 0.755196 0.955031 0.506187 5.51749 1.87359 0.484566 7.16218 1.86774 -34.8418 -5.4798 6.91315 39.6093 17.6434 0.822702 31.6048 5.44516 9.42273 125.247 47.0087 -2.97601 -1.605e-006 -2.28672e-006 4.59454e-006 -1.86974 61.092 -0.764483 5.43876e-006 -6.82298e-006 -2.99999 8.02996 -4.95101 0.697521 -73.2426 -22.8555 12.3867 -93.9384 -12.0636 26.1207 -2.43528e-005 -1.07216e-006 2.15633e-006 -38.1207 86.1813 43.7527 8.22654e-006 1.00715e-005 3.00097 -8.02989 -4.95102 -0.697571 176.96 -3.0505 3.49022 -180 7.01535e-015 178.871 178.139 8.18149 179.672 -2.68343e-006 -3.0579e-006 0.188913 -20.4863 70.0386 21.4008 8.12683 25.2332 -3.48362 -173.589 0.287058 -0.878852 4.5067e-006 -1.99009e-005 -1.2839 0.335759 -7.61389 0.174288 -1.73592e-007 -1.62038e-006 0.101525 16.978 65.322 -17.5525 -8.12239 25.2335 3.48173 
46.1607 96.653 4.10029 2.22422 -3.32165 10.1773 0.268075 0.740905 0.944292 0.516763 5.48893 1.85142 0.495427 7.13363 1.84535 -34.8471 -5.38295 6.8524 39.6756 17.5745 0.749497 31.8772 5.44905 9.35202 125.079 46.1304 -3.25152 -1.605e-006 -2.28672e-006 4.59454e-006 -1.19045 61.7882 -1.2504 5.43876e-006 -6.82298e-006 -2.99999 8.02996 -4.95101 0.697521 -73.1606 -22.7549 12.3488 -93.9733 -12.1317 26.2314 -2.43528e-005 -1.07216e-006 2.15633e-006 -38.5245 86.2749 44.2154 8.22654e-006 1.00715e-005 3.00097 -8.02989 -4.95102 -0.697571 177.055 -3.09694 3.43709 -180 7.01534e-015 178.869 178.154 8.11071 179.671 -2.68343e-006 -3.0579e-006 0.188388 -20.4717 70.0227 21.3843 8.12683 25.2332 -3.48362 -173.503 0.3075 -0.932546 4.5067e-006 -1.99009e-005 -1.28565 0.331819 -7.61009 0.174428 -1.73592e-007 -1.62038e-006 0.101521 16.9757 65.3192 -17.5495 -8.1224 25.2335 3.48173 
46.1133 96.6472 4.12768 2.16857 -3.31475 10.241 0.272964 0.726531 0.933298 0.527055 5.4602 1.82876 0.50601 7.1049 1.82247 -34.8521 -5.28872 6.79044 39.7413 17.5044 0.676519 32.1515 5.45225 9.28047 124.904 45.2492 -3.52928 -1.605e-006 -2.28672e-006 4.59454e-006 -0.500306 62.4786 -1.75437 5.43876e-006 -6.82298e-006 -2.99999 8.02996 -4.95101 0.697521 -73.0773 -22.6541 12.3109 -94.0112 -12.1991 26.3396 -2.43528e-005 -1.07216e-006 2.15633e-006 -38.9388 86.3673 44.6881 8.22654e-006 1.00715e-005 3.00097 -8.02989 -4.95102 -0.697571 177.15 -3.14104 3.38442 -180 7.01534e-015 178.868 178.169 8.04044 179.671 -2.68343e-006 -3.0579e-006 0.187852 -20.4571 70.0068 21.3679 8.12683 25.2332 -3.48362 -173.419 0.331464 -0.98529 4.5067e-006 -1.99009e-005 -1.2873 0.328165 -7.60957 0.174713 -1.73592e-007 -1.62038e-006 0.10136 16.9742 65.3175 -17.5472 -8.1224 25.2335 3.48173 
46.1172 96.6468 4.18096 2.11417 -3.30652 10.3047 0.277552 0.712156 0.922089 0.536734 5.43147 1.80571 0.515982 7.07618 1.79922 -34.8562 -5.19657 6.72764 39.8056 17.4334 0.604036 32.4284 5.45489 9.20804 124.724 44.3664 -3.80734 -1.605e-006 -2.28672e-006 4.59454e-006 0.196735 63.163 -2.27328 5.43876e-006 -6.82298e-006 -2.99999 8.02996 -4.95101 0.697521 -72.993 -22.553 12.2728 -94.0512 -12.2656 26.4452 -2.43528e-005 -1.07216e-006 2.15633e-006 -39.3647 86.4584 45.1719 8.22654e-006 1.00715e-005 3.00097 -8.02989 -4.95102 -0.697571 177.242 -3.18289 3.33309 -180 7.01534e-015 178.866 178.183 7.97155 179.67 -2.68343e-006 -3.0579e-006 0.187297 -20.4427 69.9911 21.3517 8.12683 25.2332 -3.48362 -173.336 0.358733 -1.03612 4.5067e-006 -1.99009e-005 -1.2888 0.325129 -7.61324 0.175203 -1.73592e-007 -1.62038e-006 0.100996 16.9738 65.3178 -17.5463 -8.12241 25.2335 3.48174 
46.1037 96.6393 4.18558 2.06185 -3.29729 10.368 0.281676 0.697864 0.910705 0.545471 5.40289 1.78239 0.525013 7.04761 1.7757 -34.8592 -5.10598 6.66436 39.8681 17.3613 0.532314 32.7088 5.45712 9.13469 124.543 43.4833 -4.08389 -1.605e-006 -2.28672e-006 4.59454e-006 0.89633 63.841 -2.80371 5.43876e-006 -6.82298e-006 -2.99999 8.02996 -4.95101 0.697521 -72.9081 -22.4512 12.2343 -94.0928 -12.3311 26.548 -2.43528e-005 -1.07216e-006 2.15633e-006 -39.8037 86.5483 45.6683 8.22654e-006 1.00715e-005 3.00097 -8.02989 -4.95102 -0.697571 177.331 -3.22258 3.28396 -180 7.01533e-015 178.865 178.196 7.90488 179.669 -2.68343e-006 -3.0579e-006 0.186716 -20.4286 69.9757 21.3359 8.12683 25.2332 -3.48362 -173.257 0.38909 -1.08408 4.5067e-006 -1.99009e-005 -1.29013 0.323045 -7.62196 0.175962 -1.73592e-007 -1.62038e-006 0.100385 16.975 65.3207 -17.5471 -8.12241 25.2335 3.48174 
46.0314 96.6317 4.25341 2.01245 -3.28738 10.4305 0.285172 0.683738 0.899186 0.552936 5.37464 1.75888 0.532773 7.01936 1.75202 -34.8605 -5.01642 6.60097 39.928 17.2883 0.461621 32.9933 5.45905 9.06038 124.361 42.6011 -4.35725 -1.605e-006 -2.28672e-006 4.59454e-006 1.59372 64.5127 -3.34187 5.43876e-006 -6.82298e-006 -2.99999 8.02996 -4.95101 0.697521 -72.8233 -22.3487 12.1953 -94.1354 -12.3956 26.648 -2.43528e-005 -1.07216e-006 2.15633e-006 -40.2573 86.6368 46.1788 8.22654e-006 1.00715e-005 3.00097 -8.02989 -4.95102 -0.697571 177.414 -3.26022 3.23791 -180 7.01533e-015 178.863 178.208 7.8413 179.668 -2.68343e-006 -3.0579e-006 0.1861 -20.415 69.9609 21.3207 8.12683 25.2332 -3.48362 -173.183 0.422318 -1.1282 4.5067e-006 -1.99009e-005 -1.29124 0.322245 -7.63662 0.17705 -1.73592e-007 -1.62038e-006 0.0994821 16.9783 65.3269 -17.5502 -8.12242 25.2335 3.48174 
46.038 96.6241 4.26318 1.96682 -3.27713 10.492 0.28788 0.669863 0.887573 0.558802 5.34688 1.73529 0.538931 6.99161 1.72829 -34.8596 -4.92736 6.53782 39.9849 17.2143 0.392222 33.2828 5.46083 8.98506 124.183 41.7211 -4.62584 -1.605e-006 -2.28672e-006 4.59454e-006 2.2837 65.178 -3.88354 5.43876e-006 -6.82298e-006 -2.99999 8.02996 -4.95101 0.697521 -72.7388 -22.2453 12.1555 -94.1783 -12.4587 26.7449 -2.43528e-005 -1.07216e-006 2.15633e-006 -40.7274 86.724 46.7049 8.22654e-006 1.00715e-005 3.00097 -8.02989 -4.95102 -0.697571 177.49 -3.2959 3.19581 -180 7.01532e-015 178.862 178.218 7.78164 179.668 -2.68343e-006 -3.0579e-006 0.185441 -20.4022 69.9468 21.3063 8.12683 25.2332 -3.48362 -173.115 0.4582 -1.16751 4.5067e-006 -1.99009e-005 -1.29209 0.323065 -7.65811 0.178531 -1.73592e-007 -1.62038e-006 0.0982429 16.9841 65.337 -17.556 -8.12243 25.2335 3.48174 
45.9878 96.621 4.32184 1.9258 -3.26686 10.5519 0.289636 0.656322 0.875903 0.562741 5.31977 1.71172 0.543159 6.9645 1.70461 -34.8563 -4.83826 6.4753 40.0381 17.1394 0.324383 33.578 5.46259 8.9087 124.011 40.8446 -4.8882 -1.605e-006 -2.28672e-006 4.59454e-006 2.96056 65.8368 -4.42407 5.43876e-006 -6.82298e-006 -2.99999 8.02996 -4.95101 0.697521 -72.6551 -22.1408 12.1149 -94.2208 -12.5205 26.8388 -2.43528e-005 -1.07216e-006 2.15633e-006 -41.2155 86.8098 47.2485 8.22654e-006 1.00715e-005 3.00096 -8.02989 -4.95102 -0.697571 177.559 -3.3297 3.15854 -180 7.01532e-015 178.86 178.227 7.72678 179.668 -2.68343e-006 -3.0579e-006 0.184731 -20.3902 69.9335 21.2928 8.12683 25.2332 -3.48362 -173.055 0.496519 -1.20105 4.5067e-006 -1.99009e-005 -1.29266 0.325837 -7.6873 0.180465 -1.73592e-007 -1.62038e-006 0.0966225 16.9929 65.3518 -17.565 -8.12243 25.2335 3.48175 
45.9788 96.621 4.34477 1.89023 -3.2569 10.61 0.290278 0.643197 0.864219 0.564426 5.29348 1.68829 0.545126 6.93823 1.68111 -34.8501 -4.74859 6.41375 40.087 17.0637 0.25837 33.8798 5.46446 8.83126 123.848 39.973 -5.14293 -1.605e-006 -2.28672e-006 4.59454e-006 3.61803 66.4894 -4.95829 5.43876e-006 -6.82298e-006 -2.99999 8.02996 -4.95101 0.697521 -72.5727 -22.0349 12.0732 -94.2624 -12.5808 26.9294 -2.43528e-005 -1.07216e-006 2.15633e-006 -41.7235 86.8941 47.8114 8.22654e-006 1.00715e-005 3.00096 -8.02989 -4.95102 -0.697571 177.618 -3.36173 3.12695 -180 7.01532e-015 178.859 178.234 7.67759 179.667 -2.68343e-006 -3.0579e-006 0.183962 -20.3792 69.9212 21.2804 8.12683 25.2332 -3.48362 -173.003 0.537057 -1.22787 4.5067e-006 -1.99009e-005 -1.2929 0.330898 -7.72509 0.182915 -1.73592e-007 -1.62038e-006 0.0945762 17.005 65.3719 -17.5778 -8.12244 25.2335 3.48175 
45.9563 96.6181 4.37328 1.86096 -3.24756 10.6659 0.289646 0.630574 0.85256 0.56353 5.26818 1.66508 0.544505 6.91293 1.65787 -34.8405 -4.65784 6.35355 40.1312 16.9871 0.194447 34.1889 5.46658 8.7527 123.697 39.1074 -5.3887 -1.605e-006 -2.28672e-006 4.59454e-006 4.24927 67.1358 -5.4805 5.43876e-006 -6.82298e-006 -2.99999 8.02996 -4.95101 0.697521 -72.492 -21.9276 12.0303 -94.3024 -12.6395 27.0167 -2.43528e-005 -1.07216e-006 2.15633e-006 -42.2535 86.977 48.3953 8.22654e-006 1.00715e-005 3.00096 -8.02989 -4.95102 -0.697571 177.667 -3.39207 3.10193 -180 7.01532e-015 178.858 178.239 7.63488 179.668 -2.68343e-006 -3.0579e-006 0.183127 -20.3695 69.9102 21.2694 8.12683 25.2332 -3.48362 -172.961 0.579599 -1.24698 4.5067e-006 -1.99009e-005 -1.29278 0.338582 -7.77235 0.185943 -1.73592e-007 -1.62038e-006 0.0920593 17.021 65.398 -17.5949 -8.12244 25.2335 3.48175 
45.9308 96.6091 4.40568 1.83825 -3.23787 10.7211 0.287618 0.618356 0.840676 0.5598 5.24368 1.64162 0.541065 6.88843 1.63444 -34.8308 -4.56909 6.29308 40.1758 16.91 0.131135 34.5046 5.46973 8.67358 123.556 38.245 -5.62802 -1.605e-006 -2.28672e-006 4.59454e-006 4.86005 67.7813 -5.99851 5.43876e-006 -6.82298e-006 -2.99999 8.02996 -4.95101 0.697521 -72.4113 -21.8198 11.9871 -94.3423 -12.6959 27.1019 -2.43528e-005 -1.07216e-006 2.15633e-006 -42.7951 87.0578 48.9901 8.22654e-006 1.00715e-005 3.00096 -8.02989 -4.95102 -0.697571 177.704 -3.42002 3.08391 -180 7.01531e-015 178.857 178.241 7.59846 179.668 -2.68343e-006 -3.0579e-006 0.182205 -20.361 69.9005 21.2597 8.12683 25.2332 -3.48362 -172.929 0.627646 -1.25741 4.5067e-006 -1.99009e-005 -1.29223 0.349671 -7.83322 0.189774 -1.73592e-007 -1.62038e-006 0.0888942 17.042 65.4319 -17.6174 -8.12245 25.2335 3.48175 
46.0312 96.6193 4.392 1.82129 -3.22672 10.7774 0.284295 0.606378 0.82834 0.553429 5.21963 1.61745 0.535016 6.86439 1.61032 -34.8239 -4.48524 6.23074 40.2254 16.8328 0.0670438 34.8257 5.47431 8.59438 123.418 37.3822 -5.8648 -1.605e-006 -2.28672e-006 4.59454e-006 5.46275 68.4298 -6.52514 5.43876e-006 -6.82298e-006 -2.99999 8.02996 -4.95101 0.697521 -72.3292 -21.7127 11.9443 -94.3839 -12.7499 27.1859 -2.43528e-005 -1.07216e-006 2.15633e-006 -43.3382 87.1362 49.5854 8.22654e-006 1.00715e-005 3.00096 -8.02989 -4.95102 -0.697571 177.731 -3.44495 3.0722 -180 7.01531e-015 178.856 178.241 7.56711 179.669 -2.68343e-006 -3.0579e-006 0.181191 -20.3535 69.8919 21.2513 8.12683 25.2332 -3.48362 -172.907 0.684015 -1.25954 4.5067e-006 -1.99009e-005 -1.29122 0.364354 -7.90969 0.1945 -1.73592e-007 -1.62038e-006 0.0850024 17.0683 65.4739 -17.6456 -8.12245 25.2335 3.48175 
